<svg xmlns="http://www.w3.org/2000/svg" class="ionicon" viewBox="0 0 512 512" fill="#fff">
  <path d="M417.1,64H96.9C78.3,64,64,78.3,64,96.9v319.1C64,433.7,78.3,448,96.9,448h319.1c18.6,0,32.9-14.3,32.9-32.9V96.9C450,78.3,435.7,64,417.1,64z M184,377.4h-57.4V209.5H184V377.4z M155.2,181.7c-18.6,0-33.7-15.2-33.7-33.7c0-18.6,15.2-33.7,33.7-33.7c18.6,0,33.7,15.2,33.7,33.7C188.9,166.5,173.8,181.7,155.2,181.7z M400,377.4h-57.4V296.8c0-19.2-0.4-43.9-26.8-43.9c-26.8,0-30.9,20.9-30.9,42.5v82h-57.4V209.5h55.1v22.9h0.8c7.7-14.5,26.5-29.8,54.5-29.8c58.3,0,69,38.4,69,88.4V377.4z"/>
</svg>
